<?xml version="1.0" standalone="no"?><svg xmlns:xlink="http://www.w3.org/1999/xlink" xmlns="http://www.w3.org/2000/svg" viewBox="0 0 1000 583.3349440439144" preserveAspectRatio="xMaxYMax slice"><g transform="scale(0.9664263486479695)"><rect x="0" y="0" width="1034.7428571428572" height="603.6" fill="#ffffff"/><rect x="0" y="0" width="86.23" height="86.23" fill="#4d6be8"/><path d="M 0 0 A 86.23 86.23 0 0 0 86.23 86.23 L 86.23 0" fill="#ff7e9d"/><rect x="86.22857142857143" y="0" width="86.22857142857143" height="86.22857142857143" fill="#ffffff"/><rect x="86.23" y="0" width="43.11" height="43.11" fill="#ff7e9d"/><path d="M 86.23 0 A 43.11 43.11 0 0 0 129.34 43.11 L 129.34 0" fill="#ff4571"/><rect x="129.34" y="0" width="43.11" height="43.11" fill="#ffa9bd"/><path d="M 129.34 43.11 A 43.11 43.11 0 0 0 172.45 0 L 129.34 0" fill="#eff2fd"/><rect x="86.23" y="43.11" width="43.11" height="43.11" fill="#ff4370"/><path d="M 86.23 86.22 A 43.11 43.11 0 0 1  129.34 43.11 L 129.34 86.22" fill="#3a5ce5"/><rect x="129.34" y="43.11" width="43.11" height="43.11" fill="#3f5fe6"/><path d="M 129.34 43.11 A 43.11 43.11 0 0 1 172.45 86.22 L 129.34 86.22" fill="#1c43e2"/><rect x="172.45714285714286" y="0" width="86.22857142857143" height="86.22857142857143" fill="#ffffff"/><rect x="172.46" y="0" width="43.11" height="43.11" fill="#ffcfda"/><path d="M 172.46 43.11 A 43.11 43.11 0 0 0 215.57 0 L 172.46 0" fill="#b2bff5"/><rect x="215.57" y="0" width="43.11" height="43.11" fill="#afbcf5"/><path d="M 215.57 0 A 43.11 43.11 0 0 0 258.68 43.11 L 258.68 0" fill="#ff4773"/><rect x="172.46" y="43.11" width="43.11" height="43.11" fill="#dbe1fa"/><path d="M 172.46 43.11 A 43.11 43.11 0 0 1 215.57 86.22 L 172.46 86.22" fill="#ff6086"/><rect x="215.57" y="43.11" width="43.11" height="43.11" fill="#788fed"/><path d="M 215.57 86.22 A 43.11 43.11 0 0 1  258.68 43.11 L 258.68 86.22" fill="#2247e2"/><rect x="258.6857142857143" y="0" width="86.22857142857143" height="86.22857142857143" fill="#ffffff"/><rect x="258.69" y="0" width="43.11" height="43.11" fill="#ff4a75"/><path d="M 258.69 0 A 43.11 43.11 0 0 1 301.8 43.11 L 258.69 43.11" fill="#5571e9"/><rect x="301.8" y="0" width="43.11" height="43.11" fill="#5e79ea"/><path d="M 301.8 43.11 A 43.11 43.11 0 0 1  344.91 0 L 344.91 43.11" fill="#ff8ba7"/><rect x="258.69" y="43.11" width="43.11" height="43.11" fill="#fff8fa"/><path d="M 258.69 86.22 A 43.11 43.11 0 0 0 301.8 43.11 L 258.69 43.11" fill="#ff6d8f"/><rect x="301.8" y="43.11" width="43.11" height="43.11" fill="#cfd7f9"/><path d="M 301.8 43.11 A 43.11 43.11 0 0 0 344.91 86.22 L 344.91 43.11" fill="#ffaabe"/><rect x="344.9142857142857" y="0" width="86.22857142857143" height="86.22857142857143" fill="#ffffff"/><rect x="344.91" y="0" width="43.11" height="43.11" fill="#647eeb"/><polygon points="388.02000000000004,0 388.02000000000004,43.11 344.91,43.11" fill="#ffa1b8"/><rect x="388.03" y="0" width="43.11" height="43.11" fill="#ffd0db"/><polygon points="388.03,0 431.14,43.11 388.03,43.11" fill="#526fe9"/><rect x="344.91" y="43.11" width="43.11" height="43.11" fill="#c5cff7"/><polygon points="344.91,43.11 388.02000000000004,43.11 344.91,86.22" fill="#728aed"/><rect x="388.03" y="43.11" width="43.11" height="43.11" fill="#ffdee6"/><polygon points="388.03,43.11 431.14,43.11 431.14,86.22" fill="#6f88ec"/><rect x="431.14" y="0" width="86.23" height="86.23" fill="#ff90aa"/><path d="M 431.14 86.23 A 86.23 86.23 0 0 0 517.37 0 L 431.14 0" fill="#96a8f1"/><rect x="517.37" y="0" width="86.23" height="86.23" fill="#c9d2f8"/><polygon points="517.37,0 603.6,0 603.6,86.23" fill="#b9c5f6"/><rect x="603.6" y="0" width="86.22857142857143" height="86.22857142857143" fill="#ffffff"/><rect x="603.6" y="0" width="43.11" height="43.11" fill="#ff9bb2"/><circle cx="625.155" cy="21.555" r="21.555" fill="#4867e7"/><rect x="646.71" y="0" width="43.11" height="43.11" fill="#9babf2"/><rect x="646.71" y="0" width="43.11" height="43.11" fill="#3b5ce6"/><rect x="603.6" y="43.11" width="43.11" height="43.11" fill="#8c9ff0"/><circle cx="625.155" cy="64.66499999999999" r="21.555" fill="#5c78ea"/><rect x="646.71" y="43.11" width="43.11" height="43.11" fill="#ff88a5"/><rect x="646.71" y="43.11" width="43.11" height="43.11" fill="#fffefe"/><rect x="689.83" y="0" width="86.23" height="86.23" fill="#ff7596"/><polygon points="689.83,0 776.0600000000001,0 776.0600000000001,86.23" fill="#ff5c83"/><rect x="776.0571428571428" y="0" width="86.22857142857143" height="86.22857142857143" fill="#ffffff"/><rect x="776.06" y="0" width="43.11" height="43.11" fill="#f2f4fd"/><polygon points="819.17,0 819.17,43.11 776.06,43.11" fill="#ffa0b7"/><rect x="819.17" y="0" width="43.11" height="43.11" fill="#6781eb"/><polygon points="819.17,0 862.28,43.11 819.17,43.11" fill="#3355e4"/><rect x="776.06" y="43.11" width="43.11" height="43.11" fill="#bdc8f6"/><polygon points="776.06,43.11 819.17,43.11 776.06,86.22" fill="#ffdae3"/><rect x="819.17" y="43.11" width="43.11" height="43.11" fill="#bac5f6"/><polygon points="819.17,43.11 862.28,43.11 862.28,86.22" fill="#ff92ac"/><rect x="862.2857142857142" y="0" width="86.22857142857143" height="86.22857142857143" fill="#ffffff"/><rect x="862.29" y="0" width="43.11" height="43.11" fill="#617ceb"/><path d="M 862.29 43.11 A 43.11 43.11 0 0 0 905.4 0 L 862.29 0" fill="#ff3d6b"/><rect x="905.4" y="0" width="43.11" height="43.11" fill="#dde3fb"/><path d="M 905.4 0 A 43.11 43.11 0 0 0 948.51 43.11 L 948.51 0" fill="#ff6c8f"/><rect x="862.29" y="43.11" width="43.11" height="43.11" fill="#ff82a0"/><path d="M 862.29 43.11 A 43.11 43.11 0 0 1 905.4 86.22 L 862.29 86.22" fill="#ff89a5"/><rect x="905.4" y="43.11" width="43.11" height="43.11" fill="#3e5fe6"/><path d="M 905.4 86.22 A 43.11 43.11 0 0 1  948.51 43.11 L 948.51 86.22" fill="#2a4ee3"/><rect x="948.5142857142857" y="0" width="86.22857142857143" height="86.22857142857143" fill="#ffffff"/><rect x="948.51" y="0" width="43.11" height="43.11" fill="#f5f7fe"/><path d="M 948.51 43.11 A 43.11 43.11 0 0 1 991.62 0 L 991.62 10.7775 A 32.332499999999996 32.332499999999996 0 0 0 959.2875 43.11" fill="#ff6086"/><rect x="991.63" y="0" width="43.11" height="43.11" fill="#ff98b0"/><path d="M 991.63 0 A 43.11 43.11 0 0 1 1034.74 43.11 L 1023.9625 43.11 A 32.332499999999996 32.332499999999996 0 0 0 991.63 10.7775" fill="#ff3b69"/><rect x="948.51" y="43.11" width="43.11" height="43.11" fill="#ebeffc"/><path d="M 948.51 43.11 A 43.11 43.11 0 0 0 991.62 86.22 L 991.62 75.4425 A 32.332499999999996 32.332499999999996 0 0 1 959.2875 43.11" fill="#ffa5ba"/><rect x="991.63" y="43.11" width="43.11" height="43.11" fill="#dce2fa"/><path d="M 991.63 86.22 A 43.11 43.11 0 0 0 1034.74 43.11 L 1023.9625 43.11 A 32.332499999999996 32.332499999999996 0 0 1 991.63 75.4425" fill="#8a9ef0"/><rect x="0" y="86.23" width="86.23" height="86.23" fill="#ff4a75"/><path d="M 0 172.46 A 86.23 86.23 0 0 1  86.23 86.23 L 86.23 172.46" fill="#879bef"/><rect x="86.23" y="86.23" width="86.23" height="86.23" fill="#ff4370"/><rect x="86.23" y="86.23" width="86.23" height="86.23" fill="#4c6ae8"/><rect x="172.45714285714286" y="86.22857142857143" width="86.22857142857143" height="86.22857142857143" fill="#ffffff"/><rect x="172.46" y="86.23" width="43.11" height="43.11" fill="#ffd9e2"/><path d="M 172.46 129.34 A 43.11 43.11 0 0 1 215.57 86.23 L 215.57 97.00750000000001 A 32.332499999999996 32.332499999999996 0 0 0 183.2375 129.34" fill="#e9edfc"/><rect x="215.57" y="86.23" width="43.11" height="43.11" fill="#ff7e9c"/><path d="M 215.57 86.23 A 43.11 43.11 0 0 1 258.68 129.34 L 247.90249999999997 129.34 A 32.332499999999996 32.332499999999996 0 0 0 215.57 97.00750000000001" fill="#b6c2f6"/><rect x="172.46" y="129.34" width="43.11" height="43.11" fill="#ff6489"/><path d="M 172.46 129.34 A 43.11 43.11 0 0 0 215.57 172.45 L 215.57 161.6725 A 32.332499999999996 32.332499999999996 0 0 1 183.2375 129.34" fill="#4463e7"/><rect x="215.57" y="129.34" width="43.11" height="43.11" fill="#c3cdf7"/><path d="M 215.57 172.45 A 43.11 43.11 0 0 0 258.68 129.34 L 247.90249999999997 129.34 A 32.332499999999996 32.332499999999996 0 0 1 215.57 161.6725" fill="#fcfcff"/><rect x="258.6857142857143" y="86.22857142857143" width="86.22857142857143" height="86.22857142857143" fill="#ffffff"/><rect x="258.69" y="86.23" width="43.11" height="43.11" fill="#ffcbd8"/><polygon points="301.8,86.23 301.8,129.34 258.69,129.34" fill="#c5cff7"/><rect x="301.8" y="86.23" width="43.11" height="43.11" fill="#9aabf2"/><polygon points="301.8,86.23 344.91,129.34 301.8,129.34" fill="#8498ef"/><rect x="258.69" y="129.34" width="43.11" height="43.11" fill="#edf0fd"/><polygon points="258.69,129.34 301.8,129.34 258.69,172.45" fill="#fff5f7"/><rect x="301.8" y="129.34" width="43.11" height="43.11" fill="#4f6de8"/><polygon points="301.8,129.34 344.91,129.34 344.91,172.45" fill="#ff5e84"/><rect x="344.9142857142857" y="86.22857142857143" width="86.22857142857143" height="86.22857142857143" fill="#ffffff"/><rect x="344.91" y="86.23" width="43.11" height="43.11" fill="#ffe6ec"/><circle cx="366.46500000000003" cy="107.785" r="21.555" fill="#ff416e"/><rect x="388.03" y="86.23" width="43.11" height="43.11" fill="#ffebf0"/><rect x="388.03" y="86.23" width="43.11" height="43.11" fill="#f4f6fe"/><rect x="344.91" y="129.34" width="43.11" height="43.11" fill="#ff4d78"/><circle cx="366.46500000000003" cy="150.895" r="21.555" fill="#4968e7"/><rect x="388.03" y="129.34" width="43.11" height="43.11" fill="#7088ec"/><rect x="388.03" y="129.34" width="43.11" height="43.11" fill="#ffd0db"/><rect x="431.14" y="86.23" width="86.23" height="86.23" fill="#c5cff7"/><rect x="431.14" y="86.23" width="86.23" height="86.23" fill="#ffceda"/><rect x="517.3714285714286" y="86.22857142857143" width="86.22857142857143" height="86.22857142857143" fill="#ffffff"/><rect x="517.37" y="86.23" width="43.11" height="43.11" fill="#ff89a5"/><polygon points="560.48,86.23 560.48,129.34 517.37,129.34" fill="#4968e7"/><rect x="560.49" y="86.23" width="43.11" height="43.11" fill="#ffa8bd"/><polygon points="560.49,86.23 603.6,86.23 560.49,129.34" fill="#ff416e"/><rect x="517.37" y="129.34" width="43.11" height="43.11" fill="#ff829f"/><polygon points="517.37,129.34 560.48,129.34 560.48,172.45" fill="#ff416f"/><rect x="560.49" y="129.34" width="43.11" height="43.11" fill="#e2e7fb"/><polygon points="560.49,129.34 603.6,172.45 560.49,172.45" fill="#dee3fb"/><rect x="603.6" y="86.22857142857143" width="86.22857142857143" height="86.22857142857143" fill="#ffffff"/><rect x="603.6" y="86.23" width="43.11" height="43.11" fill="#ff4873"/><polygon points="646.71,86.23 646.71,129.34 603.6,129.34" fill="#b5c1f5"/><rect x="646.71" y="86.23" width="43.11" height="43.11" fill="#ffc4d2"/><polygon points="646.71,86.23 689.82,129.34 646.71,129.34" fill="#ffb7c8"/><rect x="603.6" y="129.34" width="43.11" height="43.11" fill="#385ae5"/><polygon points="603.6,129.34 646.71,129.34 646.71,172.45" fill="#e4e8fb"/><rect x="646.71" y="129.34" width="43.11" height="43.11" fill="#ff6288"/><polygon points="646.71,129.34 689.82,129.34 646.71,172.45" fill="#5370e9"/><rect x="689.8285714285714" y="86.22857142857143" width="86.22857142857143" height="86.22857142857143" fill="#ffffff"/><rect x="689.83" y="86.23" width="43.11" height="43.11" fill="#ff8ca7"/><circle cx="711.385" cy="107.785" r="21.555" fill="#ffacbf"/><rect x="732.94" y="86.23" width="43.11" height="43.11" fill="#ffd8e1"/><rect x="732.94" y="86.23" width="43.11" height="43.11" fill="#ff4471"/><rect x="689.83" y="129.34" width="43.11" height="43.11" fill="#ff84a1"/><circle cx="711.385" cy="150.895" r="21.555" fill="#ffb0c3"/><rect x="732.94" y="129.34" width="43.11" height="43.11" fill="#ff5b82"/><rect x="732.94" y="129.34" width="43.11" height="43.11" fill="#ffb9ca"/><rect x="776.0571428571428" y="86.22857142857143" width="86.22857142857143" height="86.22857142857143" fill="#ffffff"/><rect x="776.06" y="86.23" width="43.11" height="43.11" fill="#ffd8e1"/><polygon points="819.17,86.23 819.17,129.34 776.06,129.34" fill="#c9d2f8"/><rect x="819.17" y="86.23" width="43.11" height="43.11" fill="#acbaf4"/><polygon points="819.17,86.23 862.28,129.34 819.17,129.34" fill="#ffc1cf"/><rect x="776.06" y="129.34" width="43.11" height="43.11" fill="#5c77ea"/><polygon points="776.06,129.34 819.17,129.34 776.06,172.45" fill="#ff5980"/><rect x="819.17" y="129.34" width="43.11" height="43.11" fill="#a5b4f3"/><polygon points="819.17,129.34 862.28,129.34 862.28,172.45" fill="#ff5880"/><rect x="862.29" y="86.23" width="86.23" height="86.23" fill="#2e52e4"/><path d="M 862.29 86.23 A 86.23 86.23 0 0 1  948.52 172.46 L 862.29 86.23 A 86.23 86.23 0 0 0 948.52 172.46" fill="#ff3867"/><rect x="948.5142857142857" y="86.22857142857143" width="86.22857142857143" height="86.22857142857143" fill="#ffffff"/><rect x="948.51" y="86.23" width="43.11" height="43.11" fill="#ffadc0"/><polygon points="991.62,86.23 991.62,129.34 948.51,129.34" fill="#ff3666"/><rect x="991.63" y="86.23" width="43.11" height="43.11" fill="#ffe9ee"/><polygon points="991.63,86.23 1034.74,129.34 991.63,129.34" fill="#ff557d"/><rect x="948.51" y="129.34" width="43.11" height="43.11" fill="#ffbbcb"/><polygon points="948.51,129.34 991.62,129.34 991.62,172.45" fill="#f2f4fd"/><rect x="991.63" y="129.34" width="43.11" height="43.11" fill="#7c92ee"/><polygon points="991.63,129.34 1034.74,129.34 991.63,172.45" fill="#ff3b69"/><rect x="0" y="172.45714285714286" width="86.22857142857143" height="86.22857142857143" fill="#ffffff"/><rect x="0" y="172.46" width="43.11" height="43.11" fill="#889cf0"/><polygon points="43.11,172.46 43.11,215.57 0,215.57" fill="#ff6c8f"/><rect x="43.11" y="172.46" width="43.11" height="43.11" fill="#3154e4"/><polygon points="43.11,172.46 86.22,172.46 43.11,215.57" fill="#b7c3f6"/><rect x="0" y="215.57" width="43.11" height="43.11" fill="#e8ecfc"/><polygon points="0,215.57 43.11,215.57 43.11,258.68" fill="#899df0"/><rect x="43.11" y="215.57" width="43.11" height="43.11" fill="#3254e4"/><polygon points="43.11,215.57 86.22,258.68 43.11,258.68" fill="#ff3a69"/><rect x="86.22857142857143" y="172.45714285714286" width="86.22857142857143" height="86.22857142857143" fill="#ffffff"/><rect x="86.23" y="172.46" width="43.11" height="43.11" fill="#ffbfce"/><path d="M 86.23 215.57 A 43.11 43.11 0 0 1 129.34 172.46 L 129.34 183.2375 A 32.332499999999996 32.332499999999996 0 0 0 97.00750000000001 215.57" fill="#4161e6"/><rect x="129.34" y="172.46" width="43.11" height="43.11" fill="#ffacc0"/><path d="M 129.34 172.46 A 43.11 43.11 0 0 1 172.45 215.57 L 161.6725 215.57 A 32.332499999999996 32.332499999999996 0 0 0 129.34 183.2375" fill="#5b77ea"/><rect x="86.23" y="215.57" width="43.11" height="43.11" fill="#ffc4d2"/><path d="M 86.23 215.57 A 43.11 43.11 0 0 0 129.34 258.68 L 129.34 247.90249999999997 A 32.332499999999996 32.332499999999996 0 0 1 97.00750000000001 215.57" fill="#ffb1c3"/><rect x="129.34" y="215.57" width="43.11" height="43.11" fill="#fff7f9"/><path d="M 129.34 258.68 A 43.11 43.11 0 0 0 172.45 215.57 L 161.6725 215.57 A 32.332499999999996 32.332499999999996 0 0 1 129.34 247.90249999999997" fill="#f6f7fe"/><rect x="172.46" y="172.46" width="86.23" height="86.23" fill="#506de8"/><path d="M 172.46 258.69 A 86.23 86.23 0 0 1  258.69 172.46 L 258.69 258.69" fill="#ff83a1"/><rect x="258.69" y="172.46" width="86.23" height="86.23" fill="#ff7697"/><rect x="258.69" y="172.46" width="86.23" height="86.23" fill="#d8defa"/><rect x="344.9142857142857" y="172.45714285714286" width="86.22857142857143" height="86.22857142857143" fill="#ffffff"/><rect x="344.91" y="172.46" width="43.11" height="43.11" fill="#ffffff"/><polygon points="388.02000000000004,172.46 388.02000000000004,215.57 344.91,215.57" fill="#e2e7fb"/><rect x="388.03" y="172.46" width="43.11" height="43.11" fill="#ffe8ed"/><polygon points="388.03,172.46 431.14,172.46 388.03,215.57" fill="#7e94ee"/><rect x="344.91" y="215.57" width="43.11" height="43.11" fill="#ffb6c8"/><polygon points="344.91,215.57 388.02000000000004,215.57 388.02000000000004,258.68" fill="#ff4b76"/><rect x="388.03" y="215.57" width="43.11" height="43.11" fill="#ff3d6b"/><polygon points="388.03,215.57 431.14,258.68 388.03,258.68" fill="#a9b8f4"/><rect x="431.1428571428571" y="172.45714285714286" width="86.22857142857143" height="86.22857142857143" fill="#ffffff"/><rect x="431.14" y="172.46" width="43.11" height="43.11" fill="#ffebf0"/><polygon points="474.25,172.46 474.25,215.57 431.14,215.57" fill="#e3e8fb"/><rect x="474.26" y="172.46" width="43.11" height="43.11" fill="#ff3968"/><polygon points="474.26,172.46 517.37,215.57 474.26,215.57" fill="#ff7092"/><rect x="431.14" y="215.57" width="43.11" height="43.11" fill="#ff4471"/><polygon points="431.14,215.57 474.25,215.57 431.14,258.68" fill="#5571e9"/><rect x="474.26" y="215.57" width="43.11" height="43.11" fill="#ff7b9a"/><polygon points="474.26,215.57 517.37,215.57 517.37,258.68" fill="#526fe9"/><rect x="517.3714285714286" y="172.45714285714286" width="86.22857142857143" height="86.22857142857143" fill="#ffffff"/><rect x="517.37" y="172.46" width="43.11" height="43.11" fill="#ffe2e9"/><path d="M 517.37 215.57 A 43.11 43.11 0 0 1 560.48 172.46 L 560.48 183.2375 A 32.332499999999996 32.332499999999996 0 0 0 528.1475 215.57" fill="#ffbccc"/><rect x="560.49" y="172.46" width="43.11" height="43.11" fill="#ff6e90"/><path d="M 560.49 172.46 A 43.11 43.11 0 0 1 603.6 215.57 L 592.8225 215.57 A 32.332499999999996 32.332499999999996 0 0 0 560.49 183.2375" fill="#3053e4"/><rect x="517.37" y="215.57" width="43.11" height="43.11" fill="#fafafe"/><path d="M 517.37 215.57 A 43.11 43.11 0 0 0 560.48 258.68 L 560.48 247.90249999999997 A 32.332499999999996 32.332499999999996 0 0 1 528.1475 215.57" fill="#ff6b8e"/><rect x="560.49" y="215.57" width="43.11" height="43.11" fill="#f4f6fe"/><path d="M 560.49 258.68 A 43.11 43.11 0 0 0 603.6 215.57 L 592.8225 215.57 A 32.332499999999996 32.332499999999996 0 0 1 560.49 247.90249999999997" fill="#ffd1dc"/><rect x="603.6" y="172.46" width="86.23" height="86.23" fill="#ffacbf"/><path d="M 603.6 172.46 A 86.23 86.23 0 0 1  689.83 258.69 L 603.6 172.46 A 86.23 86.23 0 0 0 689.83 258.69" fill="#8197ef"/><rect x="689.83" y="172.46" width="86.23" height="86.23" fill="#1940e1"/><rect x="689.83" y="172.46" width="86.23" height="86.23" fill="#abb9f4"/><rect x="776.0571428571428" y="172.45714285714286" width="86.22857142857143" height="86.22857142857143" fill="#ffffff"/><rect x="776.06" y="172.46" width="43.11" height="43.11" fill="#2e51e4"/><polygon points="819.17,172.46 819.17,215.57 776.06,215.57" fill="#ffe2e9"/><rect x="819.17" y="172.46" width="43.11" height="43.11" fill="#7a91ee"/><polygon points="819.17,172.46 862.28,215.57 819.17,215.57" fill="#ffd5df"/><rect x="776.06" y="215.57" width="43.11" height="43.11" fill="#4867e7"/><polygon points="776.06,215.57 819.17,215.57 819.17,258.68" fill="#c3cef7"/><rect x="819.17" y="215.57" width="43.11" height="43.11" fill="#ff3a69"/><polygon points="819.17,215.57 862.28,215.57 819.17,258.68" fill="#ffd1dc"/><rect x="862.2857142857142" y="172.45714285714286" width="86.22857142857143" height="86.22857142857143" fill="#ffffff"/><rect x="862.29" y="172.46" width="43.11" height="43.11" fill="#4867e7"/><path d="M 862.29 215.57 A 43.11 43.11 0 0 0 905.4 172.46 L 862.29 172.46" fill="#afbcf5"/><rect x="905.4" y="172.46" width="43.11" height="43.11" fill="#e0e5fb"/><path d="M 905.4 172.46 A 43.11 43.11 0 0 0 948.51 215.57 L 948.51 172.46" fill="#fffbfc"/><rect x="862.29" y="215.57" width="43.11" height="43.11" fill="#7c93ee"/><path d="M 862.29 215.57 A 43.11 43.11 0 0 1 905.4 258.68 L 862.29 258.68" fill="#adbbf4"/><rect x="905.4" y="215.57" width="43.11" height="43.11" fill="#ff809e"/><path d="M 905.4 258.68 A 43.11 43.11 0 0 1  948.51 215.57 L 948.51 258.68" fill="#768ded"/><rect x="948.5142857142857" y="172.45714285714286" width="86.22857142857143" height="86.22857142857143" fill="#ffffff"/><rect x="948.51" y="172.46" width="43.11" height="43.11" fill="#ff89a5"/><path d="M 948.51 215.57 A 43.11 43.11 0 0 1 991.62 172.46 L 991.62 183.2375 A 32.332499999999996 32.332499999999996 0 0 0 959.2875 215.57" fill="#647feb"/><rect x="991.63" y="172.46" width="43.11" height="43.11" fill="#6e87ec"/><path d="M 991.63 172.46 A 43.11 43.11 0 0 1 1034.74 215.57 L 1023.9625 215.57 A 32.332499999999996 32.332499999999996 0 0 0 991.63 183.2375" fill="#f3f5fd"/><rect x="948.51" y="215.57" width="43.11" height="43.11" fill="#95a7f1"/><path d="M 948.51 215.57 A 43.11 43.11 0 0 0 991.62 258.68 L 991.62 247.90249999999997 A 32.332499999999996 32.332499999999996 0 0 1 959.2875 215.57" fill="#ff6c8f"/><rect x="991.63" y="215.57" width="43.11" height="43.11" fill="#ff3968"/><path d="M 991.63 258.68 A 43.11 43.11 0 0 0 1034.74 215.57 L 1023.9625 215.57 A 32.332499999999996 32.332499999999996 0 0 1 991.63 247.90249999999997" fill="#ffdfe7"/><rect x="0" y="258.69" width="86.23" height="86.23" fill="#6680eb"/><rect x="0" y="258.69" width="86.23" height="86.23" fill="#ff5a81"/><rect x="86.22857142857143" y="258.6857142857143" width="86.22857142857143" height="86.22857142857143" fill="#ffffff"/><rect x="86.23" y="258.69" width="43.11" height="43.11" fill="#e1e6fb"/><polygon points="129.34,258.69 129.34,301.8 86.23,301.8" fill="#dbe1fa"/><rect x="129.34" y="258.69" width="43.11" height="43.11" fill="#ffadc0"/><polygon points="129.34,258.69 172.45,301.8 129.34,301.8" fill="#ffb4c6"/><rect x="86.23" y="301.8" width="43.11" height="43.11" fill="#4161e6"/><polygon points="86.23,301.8 129.34,301.8 86.23,344.91" fill="#ff7a9a"/><rect x="129.34" y="301.8" width="43.11" height="43.11" fill="#ffabbf"/><polygon points="129.34,301.8 172.45,301.8 172.45,344.91" fill="#ff8da8"/><rect x="172.46" y="258.69" width="86.23" height="86.23" fill="#b3c0f5"/><rect x="172.46" y="258.69" width="86.23" height="86.23" fill="#657feb"/><rect x="258.69" y="258.69" width="86.23" height="86.23" fill="#ff85a2"/><path d="M 258.69 258.69 A 86.23 86.23 0 0 0 344.92 344.92 L 344.92 258.69" fill="#ffd6e0"/><rect x="344.9142857142857" y="258.6857142857143" width="86.22857142857143" height="86.22857142857143" fill="#ffffff"/><rect x="344.91" y="258.69" width="43.11" height="43.11" fill="#ffd2dd"/><polygon points="388.02000000000004,258.69 388.02000000000004,301.8 344.91,301.8" fill="#7a90ee"/><rect x="388.03" y="258.69" width="43.11" height="43.11" fill="#ff557d"/><polygon points="388.03,258.69 431.14,301.8 388.03,301.8" fill="#bec9f7"/><rect x="344.91" y="301.8" width="43.11" height="43.11" fill="#ffd4de"/><polygon points="344.91,301.8 388.02000000000004,301.8 388.02000000000004,344.91" fill="#ff97b0"/><rect x="388.03" y="301.8" width="43.11" height="43.11" fill="#eff2fd"/><polygon points="388.03,301.8 431.14,301.8 388.03,344.91" fill="#e3e8fb"/><rect x="431.14" y="258.69" width="86.23" height="86.23" fill="#ff517a"/><polygon points="431.14,258.69 517.37,344.92 431.14,344.92" fill="#3053e4"/><rect x="517.3714285714286" y="258.6857142857143" width="86.22857142857143" height="86.22857142857143" fill="#ffffff"/><rect x="517.37" y="258.69" width="43.11" height="43.11" fill="#ff6388"/><polygon points="560.48,258.69 560.48,301.8 517.37,301.8" fill="#5673e9"/><rect x="560.49" y="258.69" width="43.11" height="43.11" fill="#ffa1b7"/><polygon points="560.49,258.69 603.6,301.8 560.49,301.8" fill="#4464e7"/><rect x="517.37" y="301.8" width="43.11" height="43.11" fill="#ff94ae"/><polygon points="517.37,301.8 560.48,301.8 560.48,344.91" fill="#93a6f1"/><rect x="560.49" y="301.8" width="43.11" height="43.11" fill="#b3c0f5"/><polygon points="560.49,301.8 603.6,301.8 560.49,344.91" fill="#ffa1b8"/><rect x="603.6" y="258.6857142857143" width="86.22857142857143" height="86.22857142857143" fill="#ffffff"/><rect x="603.6" y="258.69" width="43.11" height="43.11" fill="#4c6ae8"/><polygon points="646.71,258.69 646.71,301.8 603.6,301.8" fill="#ff8fa9"/><rect x="646.71" y="258.69" width="43.11" height="43.11" fill="#8fa2f0"/><polygon points="646.71,258.69 689.82,301.8 646.71,301.8" fill="#aebcf5"/><rect x="603.6" y="301.8" width="43.11" height="43.11" fill="#6982eb"/><polygon points="603.6,301.8 646.71,301.8 603.6,344.91" fill="#5975e9"/><rect x="646.71" y="301.8" width="43.11" height="43.11" fill="#fff2f5"/><polygon points="646.71,301.8 689.82,301.8 689.82,344.91" fill="#dae0fa"/><rect x="689.8285714285714" y="258.6857142857143" width="86.22857142857143" height="86.22857142857143" fill="#ffffff"/><rect x="689.83" y="258.69" width="43.11" height="43.11" fill="#5f7aea"/><path d="M 689.83 258.69 A 43.11 43.11 0 0 1 732.94 301.8 L 689.83 301.8" fill="#5471e9"/><rect x="732.94" y="258.69" width="43.11" height="43.11" fill="#ffe4eb"/><path d="M 732.94 301.8 A 43.11 43.11 0 0 1  776.0500000000001 258.69 L 776.0500000000001 301.8" fill="#2f52e4"/><rect x="689.83" y="301.8" width="43.11" height="43.11" fill="#fffafb"/><path d="M 689.83 344.91 A 43.11 43.11 0 0 0 732.94 301.8 L 689.83 301.8" fill="#e3e7fb"/><rect x="732.94" y="301.8" width="43.11" height="43.11" fill="#506ee8"/><path d="M 732.94 301.8 A 43.11 43.11 0 0 0 776.0500000000001 344.91 L 776.0500000000001 301.8" fill="#859aef"/><rect x="776.0571428571428" y="258.6857142857143" width="86.22857142857143" height="86.22857142857143" fill="#ffffff"/><rect x="776.06" y="258.69" width="43.11" height="43.11" fill="#5975e9"/><path d="M 776.06 301.8 A 43.11 43.11 0 0 0 819.17 258.69 L 776.06 258.69" fill="#ff5981"/><rect x="819.17" y="258.69" width="43.11" height="43.11" fill="#ff7f9d"/><path d="M 819.17 258.69 A 43.11 43.11 0 0 0 862.28 301.8 L 862.28 258.69" fill="#fff4f6"/><rect x="776.06" y="301.8" width="43.11" height="43.11" fill="#2146e2"/><path d="M 776.06 301.8 A 43.11 43.11 0 0 1 819.17 344.91 L 776.06 344.91" fill="#7a91ee"/><rect x="819.17" y="301.8" width="43.11" height="43.11" fill="#d1d8f9"/><path d="M 819.17 344.91 A 43.11 43.11 0 0 1  862.28 301.8 L 862.28 344.91" fill="#6c85ec"/><rect x="862.29" y="258.69" width="86.23" height="86.23" fill="#c0cbf7"/><polygon points="862.29,258.69 948.52,258.69 948.52,344.92" fill="#8a9ef0"/><rect x="948.51" y="258.69" width="86.23" height="86.23" fill="#f0f2fd"/><path d="M 948.51 344.92 A 86.23 86.23 0 0 0 1034.74 258.69 L 948.51 258.69" fill="#5e79ea"/><rect x="0" y="344.9142857142857" width="86.22857142857143" height="86.22857142857143" fill="#ffffff"/><rect x="0" y="344.91" width="43.11" height="43.11" fill="#c1ccf7"/><path d="M 0 388.02000000000004 A 43.11 43.11 0 0 0 43.11 344.91 L 0 344.91" fill="#ff7293"/><rect x="43.11" y="344.91" width="43.11" height="43.11" fill="#b1bef5"/><path d="M 43.11 344.91 A 43.11 43.11 0 0 0 86.22 388.02000000000004 L 86.22 344.91" fill="#2d51e4"/><rect x="0" y="388.03" width="43.11" height="43.11" fill="#fff5f7"/><path d="M 0 388.03 A 43.11 43.11 0 0 1 43.11 431.14 L 0 431.14" fill="#9faff3"/><rect x="43.11" y="388.03" width="43.11" height="43.11" fill="#1e44e2"/><path d="M 43.11 431.14 A 43.11 43.11 0 0 1  86.22 388.03 L 86.22 431.14" fill="#ccd5f8"/><rect x="86.23" y="344.91" width="86.23" height="86.23" fill="#dce2fa"/><rect x="86.23" y="344.91" width="86.23" height="86.23" fill="#fff4f7"/><rect x="172.45714285714286" y="344.9142857142857" width="86.22857142857143" height="86.22857142857143" fill="#ffffff"/><rect x="172.46" y="344.91" width="43.11" height="43.11" fill="#ffccd8"/><path d="M 172.46 344.91 A 43.11 43.11 0 0 1 215.57 388.02000000000004 L 172.46 388.02000000000004" fill="#ff7d9c"/><rect x="215.57" y="344.91" width="43.11" height="43.11" fill="#ffe7ec"/><path d="M 215.57 388.02000000000004 A 43.11 43.11 0 0 1  258.68 344.91 L 258.68 388.02000000000004" fill="#ff97b0"/><rect x="172.46" y="388.03" width="43.11" height="43.11" fill="#fff3f6"/><path d="M 172.46 431.14 A 43.11 43.11 0 0 0 215.57 388.03 L 172.46 388.03" fill="#a9b7f4"/><rect x="215.57" y="388.03" width="43.11" height="43.11" fill="#3658e5"/><path d="M 215.57 388.03 A 43.11 43.11 0 0 0 258.68 431.14 L 258.68 388.03" fill="#92a4f1"/><rect x="258.6857142857143" y="344.9142857142857" width="86.22857142857143" height="86.22857142857143" fill="#ffffff"/><rect x="258.69" y="344.91" width="43.11" height="43.11" fill="#ffc6d3"/><path d="M 258.69 344.91 A 43.11 43.11 0 0 0 301.8 388.02000000000004 L 301.8 344.91" fill="#ff87a4"/><rect x="301.8" y="344.91" width="43.11" height="43.11" fill="#385ae5"/><path d="M 301.8 388.02000000000004 A 43.11 43.11 0 0 0 344.91 344.91 L 301.8 344.91" fill="#5774e9"/><rect x="258.69" y="388.03" width="43.11" height="43.11" fill="#1940e1"/><path d="M 258.69 431.14 A 43.11 43.11 0 0 1  301.8 388.03 L 301.8 431.14" fill="#6f87ec"/><rect x="301.8" y="388.03" width="43.11" height="43.11" fill="#e5eafc"/><path d="M 301.8 388.03 A 43.11 43.11 0 0 1 344.91 431.14 L 301.8 431.14" fill="#7f94ee"/><rect x="344.9142857142857" y="344.9142857142857" width="86.22857142857143" height="86.22857142857143" fill="#ffffff"/><rect x="344.91" y="344.91" width="43.11" height="43.11" fill="#f2f4fd"/><path d="M 344.91 344.91 A 43.11 43.11 0 0 1 388.02000000000004 388.02000000000004 L 344.91 388.02000000000004" fill="#dce2fb"/><rect x="388.03" y="344.91" width="43.11" height="43.11" fill="#889cf0"/><path d="M 388.03 388.02000000000004 A 43.11 43.11 0 0 1  431.14 344.91 L 431.14 388.02000000000004" fill="#3a5be5"/><rect x="344.91" y="388.03" width="43.11" height="43.11" fill="#ffb7c8"/><path d="M 344.91 431.14 A 43.11 43.11 0 0 0 388.02000000000004 388.03 L 344.91 388.03" fill="#ffc9d6"/><rect x="388.03" y="388.03" width="43.11" height="43.11" fill="#7f95ee"/><path d="M 388.03 388.03 A 43.11 43.11 0 0 0 431.14 431.14 L 431.14 388.03" fill="#5b76ea"/><rect x="431.1428571428571" y="344.9142857142857" width="86.22857142857143" height="86.22857142857143" fill="#ffffff"/><rect x="431.14" y="344.91" width="43.11" height="43.11" fill="#4060e6"/><path d="M 431.14 388.02000000000004 A 43.11 43.11 0 0 1  474.25 344.91 L 474.25 388.02000000000004" fill="#4363e7"/><rect x="474.26" y="344.91" width="43.11" height="43.11" fill="#ff3867"/><path d="M 474.26 344.91 A 43.11 43.11 0 0 1 517.37 388.02000000000004 L 474.26 388.02000000000004" fill="#ff5e84"/><rect x="431.14" y="388.03" width="43.11" height="43.11" fill="#fbfcff"/><path d="M 431.14 388.03 A 43.11 43.11 0 0 0 474.25 431.14 L 474.25 388.03" fill="#ffb4c6"/><rect x="474.26" y="388.03" width="43.11" height="43.11" fill="#ffb9ca"/><path d="M 474.26 431.14 A 43.11 43.11 0 0 0 517.37 388.03 L 474.26 388.03" fill="#ff3666"/><rect x="517.37" y="344.91" width="86.23" height="86.23" fill="#8197ef"/><polygon points="603.6,344.91 603.6,431.14000000000004 517.37,431.14000000000004" fill="#4b69e8"/><rect x="603.6" y="344.91" width="86.23" height="86.23" fill="#ffedf2"/><polygon points="603.6,344.91 689.83,431.14000000000004 603.6,431.14000000000004" fill="#4b69e8"/><rect x="689.8285714285714" y="344.9142857142857" width="86.22857142857143" height="86.22857142857143" fill="#ffffff"/><rect x="689.83" y="344.91" width="43.11" height="43.11" fill="#ffbccc"/><path d="M 689.83 344.91 A 43.11 43.11 0 0 1 732.94 388.02000000000004 L 689.83 388.02000000000004" fill="#3859e5"/><rect x="732.94" y="344.91" width="43.11" height="43.11" fill="#e2e7fb"/><path d="M 732.94 388.02000000000004 A 43.11 43.11 0 0 1  776.0500000000001 344.91 L 776.0500000000001 388.02000000000004" fill="#fffcfd"/><rect x="689.83" y="388.03" width="43.11" height="43.11" fill="#a2b2f3"/><path d="M 689.83 431.14 A 43.11 43.11 0 0 0 732.94 388.03 L 689.83 388.03" fill="#c3cdf7"/><rect x="732.94" y="388.03" width="43.11" height="43.11" fill="#eef1fd"/><path d="M 732.94 388.03 A 43.11 43.11 0 0 0 776.0500000000001 431.14 L 776.0500000000001 388.03" fill="#ffc5d3"/><rect x="776.0571428571428" y="344.9142857142857" width="86.22857142857143" height="86.22857142857143" fill="#ffffff"/><rect x="776.06" y="344.91" width="43.11" height="43.11" fill="#ff3766"/><polygon points="819.17,344.91 819.17,388.02000000000004 776.06,388.02000000000004" fill="#3e5fe6"/><rect x="819.17" y="344.91" width="43.11" height="43.11" fill="#ff5980"/><polygon points="819.17,344.91 862.28,388.02000000000004 819.17,388.02000000000004" fill="#dbe1fa"/><rect x="776.06" y="388.03" width="43.11" height="43.11" fill="#ffa1b7"/><polygon points="776.06,388.03 819.17,388.03 776.06,431.14" fill="#e5eafc"/><rect x="819.17" y="388.03" width="43.11" height="43.11" fill="#d6ddfa"/><polygon points="819.17,388.03 862.28,388.03 862.28,431.14" fill="#ffc2d1"/><rect x="862.29" y="344.91" width="86.23" height="86.23" fill="#ff507a"/><path d="M 862.29 344.91 A 86.23 86.23 0 0 1 948.52 431.14000000000004 L 862.29 431.14000000000004" fill="#ff5e85"/><rect x="948.51" y="344.91" width="86.23" height="86.23" fill="#526fe9"/><path d="M 948.51 431.14000000000004 A 86.23 86.23 0 0 0 1034.74 344.91 L 948.51 344.91" fill="#fbfcfe"/><rect x="0" y="431.14" width="86.23" height="86.23" fill="#ff3766"/><rect x="0" y="431.14" width="86.23" height="86.23" fill="#bbc7f6"/><rect x="86.23" y="431.14" width="86.23" height="86.23" fill="#d8defa"/><polygon points="86.23,431.14 172.46,431.14 86.23,517.37" fill="#4766e7"/><rect x="172.46" y="431.14" width="86.23" height="86.23" fill="#ffd1dc"/><polygon points="258.69,431.14 258.69,517.37 172.46,517.37" fill="#c6d0f8"/><rect x="258.69" y="431.14" width="86.23" height="86.23" fill="#748bed"/><path d="M 258.69 431.14 A 86.23 86.23 0 0 1  344.92 517.37 L 258.69 431.14 A 86.23 86.23 0 0 0 344.92 517.37" fill="#93a6f1"/><rect x="344.91" y="431.14" width="86.23" height="86.23" fill="#fffbfc"/><path d="M 344.91 517.37 A 86.23 86.23 0 0 0 431.14000000000004 431.14 L 344.91 431.14" fill="#d2daf9"/><rect x="431.14" y="431.14" width="86.23" height="86.23" fill="#8196ef"/><polygon points="431.14,431.14 517.37,431.14 517.37,517.37" fill="#ff6e90"/><rect x="517.37" y="431.14" width="86.23" height="86.23" fill="#ffd8e1"/><rect x="517.37" y="431.14" width="86.23" height="86.23" fill="#193fe1"/><rect x="603.6" y="431.1428571428571" width="86.22857142857143" height="86.22857142857143" fill="#ffffff"/><rect x="603.6" y="431.14" width="43.11" height="43.11" fill="#a9b8f4"/><path d="M 603.6 474.25 A 43.11 43.11 0 0 1  646.71 431.14 L 646.71 474.25" fill="#2348e2"/><rect x="646.71" y="431.14" width="43.11" height="43.11" fill="#ff3767"/><path d="M 646.71 431.14 A 43.11 43.11 0 0 1 689.82 474.25 L 646.71 474.25" fill="#2146e2"/><rect x="603.6" y="474.26" width="43.11" height="43.11" fill="#3e5ee6"/><path d="M 603.6 474.26 A 43.11 43.11 0 0 0 646.71 517.37 L 646.71 474.26" fill="#ff6086"/><rect x="646.71" y="474.26" width="43.11" height="43.11" fill="#5370e9"/><path d="M 646.71 517.37 A 43.11 43.11 0 0 0 689.82 474.26 L 646.71 474.26" fill="#ff3a69"/><rect x="689.83" y="431.14" width="86.23" height="86.23" fill="#dfe5fb"/><rect x="689.83" y="431.14" width="86.23" height="86.23" fill="#ffc5d3"/><rect x="776.06" y="431.14" width="86.23" height="86.23" fill="#ffdae3"/><polygon points="776.06,431.14 862.29,431.14 776.06,517.37" fill="#a3b3f3"/><rect x="862.2857142857142" y="431.1428571428571" width="86.22857142857143" height="86.22857142857143" fill="#ffffff"/><rect x="862.29" y="431.14" width="43.11" height="43.11" fill="#395be5"/><path d="M 862.29 431.14 A 43.11 43.11 0 0 0 905.4 474.25 L 905.4 431.14" fill="#a7b6f4"/><rect x="905.4" y="431.14" width="43.11" height="43.11" fill="#d0d8f9"/><path d="M 905.4 474.25 A 43.11 43.11 0 0 0 948.51 431.14 L 905.4 431.14" fill="#fffbfc"/><rect x="862.29" y="474.26" width="43.11" height="43.11" fill="#fffdfd"/><path d="M 862.29 517.37 A 43.11 43.11 0 0 1  905.4 474.26 L 905.4 517.37" fill="#7990ee"/><rect x="905.4" y="474.26" width="43.11" height="43.11" fill="#e0e5fb"/><path d="M 905.4 474.26 A 43.11 43.11 0 0 1 948.51 517.37 L 905.4 517.37" fill="#e5eafc"/><rect x="948.51" y="431.14" width="86.23" height="86.23" fill="#ffe2e9"/><rect x="948.51" y="431.14" width="86.23" height="86.23" fill="#ff92ac"/><rect x="0" y="517.3714285714286" width="86.22857142857143" height="86.22857142857143" fill="#ffffff"/><rect x="0" y="517.37" width="43.11" height="43.11" fill="#8096ef"/><polygon points="43.11,517.37 43.11,560.48 0,560.48" fill="#516ee8"/><rect x="43.11" y="517.37" width="43.11" height="43.11" fill="#ff4471"/><polygon points="43.11,517.37 86.22,560.48 43.11,560.48" fill="#ff7e9d"/><rect x="0" y="560.49" width="43.11" height="43.11" fill="#ffb2c4"/><polygon points="0,560.49 43.11,560.49 43.11,603.6" fill="#d2d9f9"/><rect x="43.11" y="560.49" width="43.11" height="43.11" fill="#ff658a"/><polygon points="43.11,560.49 86.22,560.49 43.11,603.6" fill="#ff7193"/><rect x="86.22857142857143" y="517.3714285714286" width="86.22857142857143" height="86.22857142857143" fill="#ffffff"/><rect x="86.23" y="517.37" width="43.11" height="43.11" fill="#9daef2"/><polygon points="129.34,517.37 129.34,560.48 86.23,560.48" fill="#a3b2f3"/><rect x="129.34" y="517.37" width="43.11" height="43.11" fill="#fff4f6"/><polygon points="129.34,517.37 172.45,560.48 129.34,560.48" fill="#d7ddfa"/><rect x="86.23" y="560.49" width="43.11" height="43.11" fill="#ff7092"/><polygon points="86.23,560.49 129.34,560.49 86.23,603.6" fill="#b8c4f6"/><rect x="129.34" y="560.49" width="43.11" height="43.11" fill="#1b42e1"/><polygon points="129.34,560.49 172.45,560.49 172.45,603.6" fill="#ffe9ee"/><rect x="172.45714285714286" y="517.3714285714286" width="86.22857142857143" height="86.22857142857143" fill="#ffffff"/><rect x="172.46" y="517.37" width="43.11" height="43.11" fill="#ffffff"/><polygon points="215.57,517.37 215.57,560.48 172.46,560.48" fill="#dce2fb"/><rect x="215.57" y="517.37" width="43.11" height="43.11" fill="#ffc1d0"/><polygon points="215.57,517.37 258.68,560.48 215.57,560.48" fill="#ffe9ee"/><rect x="172.46" y="560.49" width="43.11" height="43.11" fill="#3c5de6"/><polygon points="172.46,560.49 215.57,560.49 172.46,603.6" fill="#d0d8f9"/><rect x="215.57" y="560.49" width="43.11" height="43.11" fill="#d0d8f9"/><polygon points="215.57,560.49 258.68,560.49 258.68,603.6" fill="#ffc2d0"/><rect x="258.6857142857143" y="517.3714285714286" width="86.22857142857143" height="86.22857142857143" fill="#ffffff"/><rect x="258.69" y="517.37" width="43.11" height="43.11" fill="#adbbf4"/><polygon points="301.8,517.37 301.8,560.48 258.69,560.48" fill="#ff92ac"/><rect x="301.8" y="517.37" width="43.11" height="43.11" fill="#ced6f9"/><polygon points="301.8,517.37 344.91,517.37 301.8,560.48" fill="#2449e3"/><rect x="258.69" y="560.49" width="43.11" height="43.11" fill="#a8b7f4"/><polygon points="258.69,560.49 301.8,560.49 301.8,603.6" fill="#fff7f9"/><rect x="301.8" y="560.49" width="43.11" height="43.11" fill="#ffeef2"/><polygon points="301.8,560.49 344.91,603.6 301.8,603.6" fill="#e8ecfc"/><rect x="344.9142857142857" y="517.3714285714286" width="86.22857142857143" height="86.22857142857143" fill="#ffffff"/><rect x="344.91" y="517.37" width="43.11" height="43.11" fill="#93a5f1"/><path d="M 344.91 517.37 A 43.11 43.11 0 0 0 388.02000000000004 560.48 L 388.02000000000004 517.37" fill="#ff92ac"/><rect x="388.03" y="517.37" width="43.11" height="43.11" fill="#1d43e2"/><path d="M 388.03 560.48 A 43.11 43.11 0 0 0 431.14 517.37 L 388.03 517.37" fill="#ffb6c7"/><rect x="344.91" y="560.49" width="43.11" height="43.11" fill="#3d5ee6"/><path d="M 344.91 603.6 A 43.11 43.11 0 0 1  388.02000000000004 560.49 L 388.02000000000004 603.6" fill="#ffbbcb"/><rect x="388.03" y="560.49" width="43.11" height="43.11" fill="#7a90ee"/><path d="M 388.03 560.49 A 43.11 43.11 0 0 1 431.14 603.6 L 388.03 603.6" fill="#d5dcfa"/><rect x="431.1428571428571" y="517.3714285714286" width="86.22857142857143" height="86.22857142857143" fill="#ffffff"/><rect x="431.14" y="517.37" width="43.11" height="43.11" fill="#b3c0f5"/><polygon points="474.25,517.37 474.25,560.48 431.14,560.48" fill="#ff547d"/><rect x="474.26" y="517.37" width="43.11" height="43.11" fill="#3e5fe6"/><polygon points="474.26,517.37 517.37,560.48 474.26,560.48" fill="#ff3666"/><rect x="431.14" y="560.49" width="43.11" height="43.11" fill="#9cadf2"/><polygon points="431.14,560.49 474.25,560.49 474.25,603.6" fill="#ff507a"/><rect x="474.26" y="560.49" width="43.11" height="43.11" fill="#98a9f2"/><polygon points="474.26,560.49 517.37,560.49 474.26,603.6" fill="#ff86a3"/><rect x="517.3714285714286" y="517.3714285714286" width="86.22857142857143" height="86.22857142857143" fill="#ffffff"/><rect x="517.37" y="517.37" width="43.11" height="43.11" fill="#1940e1"/><path d="M 517.37 560.48 A 43.11 43.11 0 0 1  560.48 517.37 L 560.48 560.48" fill="#ff4f79"/><rect x="560.49" y="517.37" width="43.11" height="43.11" fill="#fdfdff"/><path d="M 560.49 517.37 A 43.11 43.11 0 0 1 603.6 560.48 L 560.49 560.48" fill="#d7defa"/><rect x="517.37" y="560.49" width="43.11" height="43.11" fill="#fefeff"/><path d="M 517.37 560.49 A 43.11 43.11 0 0 0 560.48 603.6 L 560.48 560.49" fill="#b8c4f6"/><rect x="560.49" y="560.49" width="43.11" height="43.11" fill="#8da0f0"/><path d="M 560.49 603.6 A 43.11 43.11 0 0 0 603.6 560.49 L 560.49 560.49" fill="#8da1f0"/><rect x="603.6" y="517.3714285714286" width="86.22857142857143" height="86.22857142857143" fill="#ffffff"/><rect x="603.6" y="517.37" width="43.11" height="43.11" fill="#ff7092"/><path d="M 603.6 517.37 A 43.11 43.11 0 0 0 646.71 560.48 L 646.71 517.37" fill="#dfe5fb"/><rect x="646.71" y="517.37" width="43.11" height="43.11" fill="#cad3f8"/><path d="M 646.71 560.48 A 43.11 43.11 0 0 0 689.82 517.37 L 646.71 517.37" fill="#5370e9"/><rect x="603.6" y="560.49" width="43.11" height="43.11" fill="#b5c1f5"/><path d="M 603.6 603.6 A 43.11 43.11 0 0 1  646.71 560.49 L 646.71 603.6" fill="#1f45e2"/><rect x="646.71" y="560.49" width="43.11" height="43.11" fill="#ff6d90"/><path d="M 646.71 560.49 A 43.11 43.11 0 0 1 689.82 603.6 L 646.71 603.6" fill="#ff95ae"/><rect x="689.83" y="517.37" width="86.23" height="86.23" fill="#c1ccf7"/><path d="M 689.83 517.37 A 86.23 86.23 0 0 1 776.0600000000001 603.6 L 689.83 603.6" fill="#ffafc2"/><rect x="776.06" y="517.37" width="86.23" height="86.23" fill="#ff84a1"/><polygon points="776.06,517.37 862.29,517.37 862.29,603.6" fill="#748bed"/><rect x="862.29" y="517.37" width="86.23" height="86.23" fill="#ffd9e2"/><rect x="862.29" y="517.37" width="86.23" height="86.23" fill="#fffdfd"/><rect x="948.51" y="517.37" width="86.23" height="86.23" fill="#ff3f6d"/><polygon points="948.51,517.37 1034.74,517.37 1034.74,603.6" fill="#ffc5d3"/></g></svg>